<?xml version="1.0" encoding="UTF-8"?>
<svg version="1.1" xmlns="http://www.w3.org/2000/svg" width="500" height="500">
<path d="M0 0 C13.41393459 -0.06981807 26.82782523 -0.12297185 40.24190521 -0.15543652 C46.47204554 -0.17102575 52.70206063 -0.19213966 58.93212891 -0.22631836 C64.95571608 -0.25915372 70.97918355 -0.27690358 77.00285339 -0.28463173 C79.2895038 -0.29013214 81.5761484 -0.30087175 83.86274719 -0.31719017 C113.50635401 -0.52013723 138.7787785 5.57964179 160.70898438 26.49633789 C182.80282849 48.47010677 189.14376427 76.12955381 189.25293446 106.44311428 C189.25222896 109.33843307 189.2417806 112.23361104 189.23046875 115.12890625 C189.22927293 117.18204214 189.22882464 119.23517859 189.2290802 121.28831482 C189.22753222 125.54470348 189.21936418 129.80100601 189.20581055 134.05737305 C189.18863791 139.5193001 189.18500234 144.98113476 189.18575573 150.44308567 C189.18548469 154.66111638 189.18001714 158.87912681 189.17275429 163.0971508 C189.16957161 165.11345199 189.16760115 167.12975547 189.16686058 169.14605904 C189.16470318 171.94319779 189.15597746 174.74023619 189.14526367 177.53735352 C189.14571686 178.36993179 189.14617004 179.20251007 189.14663696 180.06031799 C189.11449689 185.77100623 189.11449689 185.77100623 188 188 C181.50399678 188.16819265 175.0078276 188.32808921 168.51147461 188.48217773 C166.30081542 188.53559726 164.09020154 188.59092658 161.87963867 188.64819336 C158.70501474 188.73010535 155.53029206 188.80518211 152.35546875 188.87890625 C150.86940376 188.91945885 150.86940376 188.91945885 149.35331726 188.96083069 C148.43258926 188.98092697 147.51186127 189.00102325 146.56323242 189.02172852 C145.34744759 189.05170677 145.34744759 189.05170677 144.10710144 189.08229065 C142 189 142 189 139 188 C138.67 179.09 138.34 170.18 138 161 C136.02 164.3 134.04 167.6 132 171 C123.83344758 180.25542608 113.97129482 186.94749949 101.42734909 188.27155113 C98.71964809 188.36524693 96.02700388 188.37177691 93.31787109 188.34057617 C91.79412369 188.34123329 91.79412369 188.34123329 90.23959351 188.34190369 C86.91733868 188.33983136 83.595603 188.31657399 80.2734375 188.29296875 C77.95602697 188.28736726 75.63861287 188.28309978 73.32119751 188.28010559 C67.24833209 188.26870039 61.17568498 188.23927053 55.10290527 188.20599365 C48.89545646 188.17519931 42.68797207 188.16158029 36.48046875 188.14648438 C24.32021706 188.11439661 12.16012675 188.06325282 0 188 C-0.07649345 180.36863679 -0.1287852 172.73737363 -0.16479492 165.10571289 C-0.17981774 162.51322739 -0.20024186 159.92076702 -0.22631836 157.32836914 C-0.26298808 153.58733895 -0.27979212 149.84664681 -0.29296875 146.10546875 C-0.30845261 144.95918503 -0.32393646 143.81290131 -0.33988953 142.63188171 C-0.34298868 127.58273265 4.29918509 116.26520349 14.53515625 105.296875 C24.6353656 95.8849525 35.50956819 93 49 93 C49 108.18 49 123.36 49 139 C56.0440346 138.92566339 63.08687764 138.84252535 70.13037109 138.73754883 C72.52190789 138.7044809 74.91351933 138.67639375 77.30517578 138.65356445 C80.76106307 138.61968321 84.21627732 138.56735201 87.671875 138.51171875 C88.72550232 138.50532883 89.77912964 138.4989389 90.86468506 138.49235535 C104.2144611 138.23332768 115.33500338 135.05022726 125.2890625 125.89453125 C134.76832321 115.86497638 138.61991727 104.44898898 138.37109375 90.79296875 C137.09091751 77.70821998 131.43370348 67.07158852 121.25 58.6875 C112.72195744 52.75494865 103.28509083 49.90782179 92.96972656 49.84228516 C91.21695404 49.82689194 91.21695404 49.82689194 89.42877197 49.81118774 C88.17868347 49.80388641 86.92859497 49.79658508 85.640625 49.7890625 C83.65449537 49.76817645 81.66836576 49.74727276 79.68224716 49.72536278 C74.80808877 49.6724748 69.93392789 49.62808383 65.05957031 49.59863281 C62.31966315 49.58164127 59.58003104 49.55685931 56.840271 49.52377319 C54.26929867 49.49304199 51.69816132 49.47343935 49.12701416 49.46670532 C34.23099443 49.25777341 23.1815555 44.63574753 12.296875 34.4609375 C4.6911608 26.311958 -0.06980182 15.50996463 -0.01953125 4.33984375 C-0.01671143 3.52765381 -0.0138916 2.71546387 -0.01098633 1.87866211 C-0.0055481 0.94872437 -0.0055481 0.94872437 0 0 Z " fill="#000000" transform="translate(156,156)"/>
<path d="M0 0 C1.24716797 -0.02900391 2.49433594 -0.05800781 3.77929688 -0.08789062 C13.16939399 -0.15203737 19.97076204 1.36685678 27.875 6.4375 C33.06132775 11.98566457 35.83317472 17.66497947 36.1875 25.3125 C35.8164386 33.11481807 32.9555958 39.45064336 27.1875 44.75 C21.78933689 49.20414937 16.22838333 50.69357278 9.3515625 50.640625 C8.37115494 50.63781525 8.37115494 50.63781525 7.37094116 50.63494873 C6.00456558 50.62828159 4.63820732 50.61447506 3.27197266 50.59375 C1.17202194 50.56226796 -0.92717914 50.55274002 -3.02734375 50.546875 C-13.2833282 50.4666718 -13.2833282 50.4666718 -14.4375 49.3125 C-14.53581146 47.81379952 -14.56548456 46.31051461 -14.56689453 44.80859375 C-14.57004669 43.85090088 -14.57319885 42.89320801 -14.57644653 41.90649414 C-14.5744223 40.86485107 -14.57239807 39.82320801 -14.5703125 38.75 C-14.57126923 37.68837646 -14.57222595 36.62675293 -14.57321167 35.53295898 C-14.57389364 33.28336528 -14.57203819 31.03376963 -14.56787109 28.78417969 C-14.5625231 25.32742929 -14.56781554 21.87080883 -14.57421875 18.4140625 C-14.57355797 16.23437471 -14.57227682 14.054687 -14.5703125 11.875 C-14.57233673 10.83335693 -14.57436096 9.79171387 -14.57644653 8.71850586 C-14.57329437 7.76081299 -14.57014221 6.80312012 -14.56689453 5.81640625 C-14.56609894 4.96892822 -14.56530334 4.1214502 -14.56448364 3.24829102 C-14.20743866 -2.19464996 -4.03461915 0.03042699 0 0 Z " fill="#000000" transform="translate(239.4375,224.6875)"/>
</svg>
